<?xml version="1.0" encoding="UTF-8"?>
<svg width="400" height="400" viewBox="0 0 400 400" fill="none" xmlns="http://www.w3.org/2000/svg">
  <!-- Background -->
  <rect width="400" height="400" fill="#1F1F2E"/>
  
  <!-- Character -->
  <!-- Head -->
  <circle cx="200" cy="180" r="80" fill="#4A5568"/>
  <!-- Glasses -->
  <rect x="150" y="160" width="40" height="30" rx="5" fill="#2D3748"/>
  <rect x="210" y="160" width="40" height="30" rx="5" fill="#2D3748"/>
  <line x1="190" y1="175" x2="210" y2="175" stroke="#2D3748" stroke-width="3"/>
  <!-- Hoodie -->
  <path d="M120,260 Q200,280 280,260 L300,400 H100 L120,260" fill="#553C9A"/>
  <!-- Tech vest -->
  <path d="M160,280 H240 V350 H160 V280" fill="#2D3748"/>
  <rect x="180" y="290" width="20" height="20" rx="2" fill="#553C9A"/>
  <rect x="210" y="290" width="20" height="20" rx="2" fill="#553C9A"/>
  <!-- Face -->
  <path d="M180,200 Q200,220 220,200" stroke="#2D3748" stroke-width="3" fill="none"/>
  
  <!-- Glowing effects -->
  <circle cx="180" cy="165" r="3" fill="#9F7AEA"/>
  <circle cx="220" cy="165" r="3" fill="#9F7AEA"/>
  
  <!-- Circuit patterns -->
  <path d="M50,50 L100,100 M300,50 L350,100" stroke="#553C9A" stroke-width="2"/>
  <path d="M50,350 L100,300 M300,350 L350,300" stroke="#553C9A" stroke-width="2"/>
</svg>
