<?xml version="1.0" encoding="UTF-8"?>
<svg width="400" height="400" viewBox="0 0 400 400" fill="none" xmlns="http://www.w3.org/2000/svg">
  <!-- Background -->
  <rect width="400" height="400" fill="#1F1F2E"/>
  
  <!-- Character -->
  <!-- Head -->
  <circle cx="200" cy="180" r="80" fill="#4A5568"/>
  <!-- Beard -->
  <path d="M160,200 Q200,260 240,200 Q200,280 160,200" fill="#2D3748"/>
  <!-- Glasses -->
  <rect x="150" y="160" width="40" height="30" rx="5" fill="#2D3748"/>
  <rect x="210" y="160" width="40" height="30" rx="5" fill="#2D3748"/>
  <line x1="190" y1="175" x2="210" y2="175" stroke="#2D3748" stroke-width="3"/>
  <!-- T-shirt with stickers -->
  <path d="M120,260 Q200,280 280,260 L300,400 H100 L120,260" fill="#E53E3E"/>
  <!-- Stickers -->
  <rect x="160" y="290" width="25" height="25" rx="5" fill="#F6E05E"/>
  <rect x="195" y="290" width="25" height="25" rx="5" fill="#48BB78"/>
  <rect x="230" y="290" width="25" height="25" rx="5" fill="#4299E1"/>
  <rect x="160" y="325" width="25" height="25" rx="5" fill="#9F7AEA"/>
  <rect x="195" y="325" width="25" height="25" rx="5" fill="#ED64A6"/>
  <rect x="230" y="325" width="25" height="25" rx="5" fill="#F6AD55"/>
  
  <!-- Web patterns -->
  <path d="M50,50 L100,100 M300,50 L350,100" stroke="#E53E3E" stroke-width="2"/>
  <path d="M50,350 L100,300 M300,350 L350,300" stroke="#E53E3E" stroke-width="2"/>
</svg>
